<?xml version="1.0" encoding="UTF-8" standalone="no"?>
<svg
   xmlns:dc="http://purl.org/dc/elements/1.1/"
   xmlns:cc="http://creativecommons.org/ns#"
   xmlns:rdf="http://www.w3.org/1999/02/22-rdf-syntax-ns#"
   xmlns:svg="http://www.w3.org/2000/svg"
   xmlns="http://www.w3.org/2000/svg"
   xmlns:sodipodi="http://sodipodi.sourceforge.net/DTD/sodipodi-0.dtd"
   xmlns:inkscape="http://www.inkscape.org/namespaces/inkscape"
   sodipodi:docname="Charizard.svg"
   inkscape:version="1.0 (4035a4fb49, 2020-05-01)"
   id="svg8"
   version="1.1"
   viewBox="0 0 210 297"
   height="297mm"
   width="210mm">
  <defs
     id="defs2" />
  <sodipodi:namedview
     inkscape:snap-global="false"
     inkscape:window-maximized="1"
     inkscape:window-y="-8"
     inkscape:window-x="-8"
     inkscape:window-height="705"
     inkscape:window-width="1366"
     showgrid="false"
     inkscape:document-rotation="0"
     inkscape:current-layer="layer1"
     inkscape:document-units="mm"
     inkscape:cy="278.50373"
     inkscape:cx="317.01261"
     inkscape:zoom="0.49497475"
     inkscape:pageshadow="2"
     inkscape:pageopacity="0.0"
     borderopacity="1.0"
     bordercolor="#666666"
     pagecolor="#ffffff"
     id="base" />
  <metadata
     id="metadata5">
    <rdf:RDF>
      <cc:Work
         rdf:about="">
        <dc:format>image/svg+xml</dc:format>
        <dc:type
           rdf:resource="http://purl.org/dc/dcmitype/StillImage" />
        <dc:title></dc:title>
      </cc:Work>
    </rdf:RDF>
  </metadata>
  <g
     id="layer1"
     inkscape:groupmode="layer"
     inkscape:label="Layer 1">
    <g
       transform="translate(-28.865109,-29.666918)"
       id="g1075">
      <path
         id="path863"
         style="fill:#000000;fill-opacity:1;stroke-width:2.21472"
         d="m 365.36328,121.06836 c -0.54364,0 -1.08112,0.0353 -1.61523,0.0898 -2.32185,0.0592 -4.43032,0.47797 -6.44727,1.25196 -2.41006,0.92482 -3.52312,2.13676 -3.0918,3.9707 -0.25731,0.54201 -0.4121,1.09987 -0.4121,1.66406 0,0.49854 2.88581,3.0819 7.33984,6.69141 3.28163,2.90249 7.74449,6.44521 13.61719,10.85937 11.52596,8.66346 21.46189,17.40215 22.08007,19.41992 1.65925,5.41549 7.55853,52.26178 7.87696,62.1875 v 0.5 c -0.0227,0.96439 -0.0599,1.85365 -0.14453,2.66993 -0.77038,4.81004 -4.46308,9.10347 -16.98829,20.84179 -16.0067,15.00102 -17.69324,16.00628 -24.91992,14.83204 -6.73851,-1.09496 -11.49824,-1.90949 -15.01758,-2.36329 -2.5329,-0.5958 -4.11366,-0.74581 -5.3496,-0.39843 -4.5899,0.12495 -5.29941,2.21732 -8.42188,7.26953 -3.9111,6.3283 -5.12442,7.50275 -6.62891,5.39062 -0.72231,-1.92685 -1.24993,-5.42279 -1.52929,-9.26953 0.0505,-6.30191 0.93338,-14.20579 2.12695,-17.63867 1.29146,-0.71199 3.67721,-0.98837 7.48438,-0.80078 3.72502,0.60588 8.69216,1.44737 14.04687,2.39062 10.35382,1.8238 20.07116,3.31864 21.59375,3.32032 1.90195,0.002 2.8355,-0.64689 2.72852,-2.05469 0.0234,-0.11857 0.0391,-0.2401 0.0391,-0.3711 0,-0.0189 -0.008,-0.0449 -0.01,-0.0644 0.002,-0.0556 0.01,-0.10804 0.01,-0.16601 0,-0.17609 -0.18012,-0.53079 -0.4668,-0.99024 -2.02445,-4.90509 -11.14024,-15.10957 -28.8789,-32.70312 -25.53963,-25.33071 -32.79018,-31.10819 -55.91993,-44.54688 -27.01947,-15.69872 -51.65395,-25.31446 -76.82812,-29.98828 -7.68745,-1.42727 -21.76195,-4.96604 -31.27734,-7.86523 -20.14454,-6.13769 -27.12243,-6.58631 -28.93555,-1.86133 -2.13791,5.57127 2.6765,10.67717 17.57031,18.63476 12.1396,6.48612 15.00444,9.2806 20.95313,20.44141 4.26396,8.00013 6.37247,14.55675 5.5332,17.20117 -0.746,2.35037 -8.33536,10.46115 -16.86524,18.02344 -8.52983,7.56229 -16.95562,16.54575 -18.72265,19.96289 -2.38911,4.62004 -8.53726,8.19469 -16.27344,9.83984 -2.18886,0.29817 -4.09804,0.56882 -5.77344,0.83203 -1.22488,0.0976 -2.468,0.15954 -3.73242,0.16211 -8.42103,0.0166 -13.00699,7.31065 -12.6582,15.90625 -0.1773,2.32435 0.22187,4.49356 1.24414,6.71094 1.08239,3.27255 2.86597,6.51618 5.42578,9.43164 6.58752,7.50275 13.05859,10.28411 13.05859,5.61328 0,-0.0561 0.0111,-0.10614 0.0156,-0.16015 0.0776,-0.12779 0.15271,-0.25141 0.23242,-0.39258 0.26816,-0.47494 0.55145,-0.88829 0.8418,-1.27149 2.81944,-1.61004 10.29831,0.48814 12.38476,4.38672 0.40507,0.75685 0.7216,1.41533 0.94141,2.00977 0.19049,0.91056 0.25283,1.82562 0.20312,2.70312 -0.38627,1.17502 -1.51134,2.26638 -3.53515,3.79297 -1.12695,0.85007 -1.98138,1.6024 -2.61524,2.39258 -0.94967,0.34035 -1.37244,1.2622 -1.35546,3.21484 -0.22704,1.69761 -7.8e-4,3.89035 0.54687,7.13086 2.27814,13.48424 5.18101,16.10427 19.48047,17.58008 0,0 7.77539,-0.91208 11.38476,-2.3164 3.8831,-1.51083 10.7129,-6.44141 10.7129,-6.44141 5.19916,-5.53486 12.63069,-11.64717 16.51562,-13.58203 3.88481,-1.93486 8.5348,-5.61458 10.33008,-8.17774 2.57971,-3.68296 4.65069,-4.35579 9.88086,-3.20703 7.69848,1.69086 23.26721,16.57781 27.15625,25.9668 2.4012,5.79696 2.17414,6.83875 -2.15235,9.86914 -2.66028,1.86333 -6.54384,5.04764 -8.63086,7.07617 -12.39055,12.04322 -18.67085,16.48073 -28.70898,20.29492 l -9.43555,3.58594 c -1.10759,0.12779 -2.02436,0.076 -2.89062,-0.18164 0,0 -3.44678,-1.87748 -5.3418,-2.25586 -5.64103,-1.12634 -12.51419,-1.83332 -17.25586,0.0918 -11.79198,6.37876 -18.76953,15.82863 -18.76953,25.41601 0,5.21721 -0.63546,5.16149 11.24805,0.96875 2.21113,-0.78014 4.12066,-1.37252 5.77734,-1.79882 3.30563,-0.48333 5.87232,-0.40534 7.47461,0.18359 0.8631,1.13741 0.38541,3.30346 -1.3125,6.55859 -1.77587,3.40479 -3.23507,8.93153 -3.24219,12.28125 -0.005,1.53929 0.0942,2.71059 0.35547,3.59375 0.0995,1.97329 0.9696,2.4961 2.86524,2.4961 0.32001,0 0.66571,-0.0331 1.02343,-0.0781 0.22987,0.008 0.47114,0.0116 0.72461,0.008 6.77546,-0.0998 21.56001,-10.6702 25.90235,-18.51953 2.59838,-4.69688 6.24019,-7.09763 13.61718,-8.9707 5.53912,-1.40646 14.66313,-5.24811 20.27539,-8.53711 4.1152,-2.41167 8.04427,-4.4901 10.19727,-5.43359 0.65008,0.22374 1.13737,0.73068 1.50195,1.53515 0.37512,1.43498 0.66805,3.54785 0.84571,6.10742 -0.0505,1.73205 -0.15216,3.63618 -0.31446,5.65235 -1.02183,12.70724 -2.23688,15.38608 -14.82421,32.66797 -6.97351,11.05394 -9.42309,11.32889 -13.20899,25.61328 -0.20557,4.53037 0.50252,10.4876 1.79688,16.60351 5.64025,19.74675 16.06342,25.48204 18.19921,31.9961 -0.66061,1.08744 -5.03455,3.79785 -7.10546,4.45508 -6.58653,2.09053 -19.45251,13.92576 -23.36524,21.49218 -2.8193,5.45205 -3.0469,6.39316 -0.0117,7.33203 2.10267,1.35735 5.57915,1.86574 5.80664,4.9004 0,0.50022 0.0668,0.91817 0.21485,1.26562 0.38259,1.11931 1.32488,1.54535 3.15429,1.29492 1.11189,-0.008 2.54687,-0.16882 4.38282,-0.46679 5.84651,-0.94874 7.75195,-0.47483 7.75195,1.92578 0,1.75056 0.60958,3.18359 1.35547,3.18359 5.07747,0 60.09421,-21.1284 62.3164,-23.93164 0.66835,-0.84302 1.27423,-2.48167 1.75391,-4.48047 0.28362,-0.81736 0.44894,-1.68434 0.52539,-2.61523 0.30728,-1.94839 0.49024,-4.05972 0.49024,-6.08789 0,-6.71827 0.18744,-8.74118 2.18554,-8.72852 0.76147,0.16214 1.51098,0.32195 2.48047,0.53516 0.10749,0.034 0.204,0.0614 0.31641,0.0977 13.03026,4.18001 22.481,5.24418 47.0664,5.29297 l 22.91602,0.0449 c 2.52495,0.29027 4.56334,0.78108 6.5957,1.54493 l 13.96875,7.31836 c 0.0378,0.0189 0.0704,0.0385 0.10742,0.0566 0.0491,0.0265 0.0977,0.054 0.14649,0.0801 17.38027,9.12333 19.29076,11.73309 19.34961,26.03516 0.0302,7.71398 1.8864,12.35191 9.6875,24.24219 2.38038,3.62808 4.56268,5.69285 6.51367,6.20898 0.67071,0.59758 1.19733,0.96289 1.4707,0.96289 0.0488,0 0.10378,-0.0161 0.15821,-0.0312 0.0423,0.0113 0.0886,0.0312 0.12304,0.0312 0.40891,0 1.01822,-0.72074 1.6875,-1.86719 1.22143,-1.09534 2.29656,-3.05616 3.21094,-5.88476 0.52483,-1.6235 0.94095,-2.94164 1.32227,-3.99024 0.33222,-0.77283 0.61999,-1.42485 0.875,-1.97851 1.38674,-2.3147 3.06258,-0.86233 8.82031,3.5293 4.15374,3.16826 8.59767,5.76171 9.875,5.76171 2.70429,0 5.01172,-5.18012 5.01172,-11.2539 0,-5.11007 0.24115,-5.13333 10.30664,-0.92774 11.7527,4.91059 12.58754,4.45327 10.91797,-5.98828 -1.74418,-10.90707 -7.65505,-21.37622 -19.40821,-34.38086 -0.21959,-0.24302 -0.42511,-0.48815 -0.64062,-0.73242 -4.25099,-5.08849 -7.59865,-10.12135 -7.80078,-11.79492 0.41726,-1.95579 7.14982,-4.04554 20.79297,-6.46289 55.65562,-9.86143 89.96711,-30.03578 103.86523,-61.07031 1.36411,-3.046 2.51688,-7.20372 3.43164,-11.96094 0.49576,-2.03138 0.82952,-4.13469 1.04688,-6.54883 1.88912,-14.05255 1.92149,-30.9423 -0.57618,-40.86133 -2.36235,-9.38201 -2.20718,-10.77597 1.53516,-13.86914 9.1039,-7.52466 12.07929,-15.35546 10.42578,-27.44531 -0.85973,-6.2862 -4.70958,-13.29069 -5.85742,-16.33594 -10.19221,-17.53416 -13.0155,-12.80978 -19.74219,-21.09765 -2.34312,-6.13997 9.41526,-8.68105 44.51758,-9.82422 28.19044,-0.91808 34.14342,-0.46578 48.72461,3.70508 13.24573,3.78879 19.86439,5.70882 23.19922,6.10546 0.94677,0.22988 1.69059,0.23707 2.2207,-0.0391 1.24366,-0.37591 1.15625,-1.57524 1.15625,-3.46289 0,-7.17605 -57.14609,-55.08434 -86.98047,-72.91992 -33.27159,-19.89054 -91.54389,-46.12918 -113.45117,-51.08399 -6.09041,-1.3775 -28.91133,-3.63218 -50.71289,-5.01171 -39.33532,-2.48902 -39.77744,-2.57452 -57.4668,-11.12891 -10.13019,-4.89884 -17.30782,-7.54796 -23.05664,-8.30469 -0.91942,-0.1999 -1.69646,-0.31445 -2.26172,-0.31445 z m -155.01953,71.81055 c 1.45714,0.8374 3.79966,3.41653 6.78125,8.01757 3.25966,5.03019 4.39447,8.75595 3.07031,10.08008 -1.29947,1.29948 -3.75783,-0.8021 -6.66797,-5.6582 -0.0677,-0.11339 -0.12453,-0.19835 -0.19336,-0.31445 -2.76019,-4.68665 -4.20476,-8.19861 -4.57031,-10.27344 -0.0467,-1.18787 0.48514,-1.78346 1.58008,-1.85156 z m -4.66602,12.77539 c 0.71781,0.0571 1.40143,0.43231 1.90039,1.14258 -0.0743,0.90786 -0.92982,1.85519 -2.27929,2.37304 -1.27847,0.49057 -2.39282,0.47037 -2.94336,0.0312 -0.0912,-0.25859 -0.0967,-0.54007 0.002,-0.83594 0.62707,-1.88118 2.02827,-2.81346 3.32031,-2.71093 z m 42.35938,9.72851 c 0.47459,0.32927 1.01239,0.9403 1.56836,1.83985 0.32496,0.52581 0.41611,1.00384 0.32422,1.38476 -0.46883,0.3707 -1.11192,0.6447 -1.85547,0.76172 -1.0236,-0.23754 -1.79102,-1.10933 -1.79102,-2.14648 0,-0.26529 0.0158,-0.49721 0.043,-0.71289 0.6448,-0.40288 1.21433,-0.77682 1.71094,-1.12696 z M 544.625,288.09375 c 2.32505,0 2.68291,2.47047 1.57422,10.82813 -2.69197,20.29314 3.33118,29.97692 19.43359,38.20703 l 8.39844,1.77539 c 1.37129,0.66644 3.81834,-0.33654 4.45508,0.98047 l -0.0156,10.39257 c -0.40248,28.45812 -13.15742,47.04547 -36.91992,53.71289 -12.21838,3.42834 -48.3953,4.70238 -64.9375,2.28711 -22.14758,-3.23372 -43.19139,-10.60533 -54.04687,-18.64257 -1.135,-0.88475 -2.22761,-1.7972 -3.27344,-2.74219 -0.27628,-0.26684 -0.54294,-0.53357 -0.79492,-0.80078 -2.05705,-2.18094 -9.75201,-13.12641 -17.32422,-24.6211 -1.14274,-1.78136 -2.3021,-3.55444 -3.46094,-5.28125 -11.08093,-16.94728 -10.90454,-17.37109 -5.48047,-17.37109 3.25969,0 10.3736,2.24172 15.8086,4.98242 l 8.9082,4.49219 c 0.34242,0.33808 0.65913,0.67442 0.95117,1.00976 l -0.74023,15.42969 c -0.70216,14.65608 -0.3084,16.40247 4.88086,21.5918 3.10552,3.10552 6.55414,5.64648 7.6621,5.64648 0.0189,0 0.0437,-0.0118 0.0645,-0.0156 0.0265,0.004 0.0527,0.0156 0.0742,0.0156 0.18406,0 0.4356,-0.20221 0.72851,-0.55468 1.30556,-1.35417 3.29323,-5.06386 4.95313,-9.41016 1.42401,-3.72881 2.96912,-6.94586 4.07422,-8.63672 0.35149,-0.39437 0.66712,-0.65661 0.92968,-0.74414 0.63118,-0.21041 1.75225,0.91444 3.05664,2.89648 2.83469,4.97528 6.45313,13.96912 6.45313,17.17579 0,3.26052 1.74119,4.3524 4.37695,3.625 0.076,0.0487 0.14373,0.0781 0.20117,0.0781 0.49221,0 1.2148,-0.38489 2.08008,-1.04101 2.91334,-1.59943 6.43858,-4.77429 9.85157,-9.24415 9.0034,-11.79138 9.64391,-17.38487 3.39843,-29.62695 -0.11338,-0.2222 -0.23918,-0.44018 -0.35937,-0.66016 -0.25285,-0.54995 -0.5177,-1.10102 -0.80664,-1.66015 -0.26608,-0.51524 -0.82207,-1.19431 -1.61524,-2.00391 -3.9425,-5.04224 -10.66764,-10.29856 -23.74609,-18.86718 -12.14098,-7.95439 -24.61055,-15.61862 -27.71094,-17.03126 l -3.50391,-1.5957 c -0.90032,-0.70605 -1.20943,-1.3597 -0.83593,-2.32617 l 4.59179,-4.79102 c 5.64605,-5.89319 16.8466,-9.54251 29.57813,-10.4707 3.86317,-0.15473 8.03798,-0.1235 12.58203,0.11328 1.80627,0.0941 3.44997,0.19541 5.00195,0.3125 4.63593,0.5564 9.24195,1.46698 13.64453,2.75781 6.61607,1.93984 19.31564,7.52525 28.22266,12.41211 8.90699,4.88689 16.50911,8.53132 16.89258,8.09961 0.38351,-0.4317 2.92705,-5.27053 5.65039,-10.75195 5.82149,-11.71699 12.86616,-19.93164 17.09375,-19.93164 z"
         transform="scale(0.26458333)" />
      <path
         id="path933"
         style="fill:#ffffff;fill-opacity:1;stroke-width:0.970485"
         d="m 126.86058,135.28127 c -0.2399,0.0145 -0.45176,0.33178 -0.77586,0.91091 -0.26741,0.47787 -0.3808,0.86155 -0.31492,1.23486 0.17071,0.46593 0.53166,0.95261 1.07273,1.43857 0.0933,0.0805 0.18017,0.1581 0.28655,0.24433 1.03257,0.83331 1.75258,1.02256 2.07164,0.69754 0.29455,-0.40633 0.01,-1.48947 -0.97635,-2.99416 -0.70038,-1.06892 -1.05536,-1.5507 -1.36379,-1.53205 z m -5.34815,2.97256 c -0.2262,0.0102 -0.45754,0.11778 -0.67916,0.33941 -0.6892,0.6892 -0.59467,1.18832 0.44159,2.33337 0.44982,0.49705 0.78704,0.85249 1.04372,1.07821 0.44254,0.29021 0.63387,0.29986 0.71333,0.001 0.0404,-0.19595 0.0508,-0.48947 0.047,-0.88191 -0.0149,-1.70022 -0.75869,-2.90661 -1.56654,-2.87005 z m -6.74547,1.0205 v 3.2e-4 c -0.15871,1.3e-4 -0.3119,0.0148 -0.45771,0.038 -0.42013,0.42986 -0.53369,1.17141 -0.42388,1.88855 0.18317,0.26447 0.40197,0.53123 0.63694,0.76619 0.89856,0.8982 1.32023,0.89756 1.87662,-0.002 0.39477,-0.63874 0.50266,-1.50917 0.2395,-1.93497 -0.31143,-0.50389 -1.13048,-0.75609 -1.87147,-0.75554 z" />
      <path
         id="path925"
         style="fill:#ffffff;fill-opacity:1;stroke-width:0.983377"
         d="m 60.976557,130.45948 c -0.421988,-0.0253 -1.133314,0.55299 -1.697729,1.4144 -0.812314,1.23973 -0.827562,1.84426 -0.341351,1.73319 0.409617,-0.16359 1.087875,-0.69808 1.677422,-1.33962 0.679285,-0.76401 0.907682,-1.52184 0.52347,-1.7593 -0.04721,-0.0292 -0.101558,-0.0449 -0.161812,-0.0487 z m 2.539342,1.00149 c -0.577597,-0.0346 -1.551468,0.75686 -2.324024,1.93594 -1.111859,1.69689 -1.132891,2.52473 -0.467384,2.37269 0.560668,-0.22391 1.489361,-0.95564 2.296304,-1.83375 0.92979,-1.04575 1.242128,-2.08313 0.716224,-2.40816 -0.06461,-0.0399 -0.138604,-0.0617 -0.22112,-0.0667 z m 3.274261,1.97171 c -0.447924,-0.0268 -1.203052,0.58708 -1.802165,1.50143 -0.862227,1.31593 -0.878397,1.95779 -0.362302,1.83988 0.434792,-0.17363 1.154788,-0.74116 1.780568,-1.42213 0.721046,-0.81097 0.963208,-1.61555 0.55538,-1.8676 -0.05011,-0.031 -0.107515,-0.0472 -0.171481,-0.0516 z" />
      <path
         style="fill:#000000;fill-opacity:1;stroke-width:0.585977"
         d="m 118.77188,129.86059 c -0.21279,0.0131 -0.54601,0.13055 -0.98924,0.34876 -0.27667,0.0746 -0.64057,0.24414 -1.05435,0.51154 -0.75749,0.48953 -0.74208,0.56925 0.11185,0.57698 0.0184,1.7e-4 0.0373,-0.002 0.0558,-0.003 0.11919,0.0405 0.28932,0.0316 0.47093,-0.0168 0.63116,-0.043 1.24721,-0.29034 1.43632,-0.59631 0.35135,-0.56851 0.33197,-0.84376 -0.0313,-0.82131 z"
         id="path921" />
      <path
         id="path919"
         style="fill:#fff58f;fill-opacity:1;stroke-width:0.585977"
         d="m 77.015861,97.11217 c -3.34238,-0.04763 -6.16226,1.301251 -7.215431,3.84382 -1.480459,3.57416 1.9747,13.87424 6.236505,18.59154 2.669488,2.95481 7.062585,5.30487 11.093744,5.93416 3.336024,0.52076 12.907491,0.4453 13.457741,-0.10605 0.19998,-0.20039 -0.4291,-1.65082 -1.397963,-3.22301 -1.786447,-2.89888 -3.557271,-8.56892 -3.557271,-11.39029 0,-1.41832 -0.965187,-3.16756 -2.625404,-4.98811 -0.356869,-0.3635 -0.75955,-0.76412 -1.225189,-1.22228 -0.122198,-0.12024 -0.246377,-0.23946 -0.37165,-0.35812 -2.122202,-1.9154 -4.915261,-3.82743 -8.083474,-5.443884 -2.112757,-1.077952 -4.306181,-1.609195 -6.311608,-1.637776 z m 75.296089,13.8916 c -0.0684,-0.0222 -0.54646,0.35887 -1.53399,1.16523 -5.50364,4.49401 -13.47844,6.83218 -23.30276,6.83218 h -6.64522 v 2.67279 c -3.3e-4,1.59465 -0.009,2.37176 1.08401,2.52483 l 1.69934,-0.23208 c 1.53086,-0.20909 5.02492,-0.89295 7.76436,-1.51948 10.41308,-2.38154 16.09847,-5.32081 20.22706,-10.45713 0.50886,-0.63306 0.76758,-0.96672 0.7072,-0.98634 z" />
      <path
         id="path917"
         style="fill:#f59600;fill-opacity:1;stroke-width:0.585977"
         d="m 96.761997,33.554816 c -0.05796,-0.0018 -0.108854,2.47e-4 -0.152141,0.0064 -0.996414,0.142566 -0.144157,0.998013 4.082674,4.097178 2.09702,1.537569 3.73751,2.914808 4.70703,3.929565 0.15837,0.157543 0.27768,0.288816 0.35296,0.389057 0.34115,0.397374 0.55407,0.723159 0.61017,0.955074 0.69147,2.858011 2.21518,18.13783 1.90596,19.112107 -0.26564,0.836969 -3.86222,4.301412 -6.93436,6.938223 -0.7561,0.722679 -1.368439,1.289358 -1.872429,1.718681 l -1.016316,0.97377 -0.270761,-0.03159 c -0.215213,0.119748 -0.414631,0.207049 -0.604375,0.260123 -0.242923,0.14171 -0.42504,0.219509 -0.529916,0.219509 -0.48866,0 -2.103776,-0.305774 -3.58918,-0.679801 -0.594029,-0.149579 -1.054695,-0.261659 -1.434384,-0.330069 -0.446499,-0.04364 -0.818306,-0.05219 -1.12462,-0.01579 -0.500405,0.142625 -0.858555,0.561737 -1.506265,1.371205 -0.486139,0.607559 -0.830517,1.08713 -1.037589,1.504007 -0.109382,0.276123 -0.186799,0.531319 -0.226601,0.768121 -0.02856,0.71024 0.521092,1.32214 1.696441,2.311129 2.250549,1.893714 3.168805,1.903641 4.884637,0.05222 1.039766,-1.121925 1.943369,-1.465004 3.859619,-1.465004 2.366249,0 2.801479,-0.293569 8.011269,-5.402628 3.02994,-2.971353 5.64986,-5.96361 5.82199,-6.649414 0.17212,-0.685797 -0.33685,-5.70366 -1.13075,-11.15112 -0.79389,-5.447459 -1.27215,-10.090797 -1.06273,-10.318533 0.43134,-0.469052 16.11979,1.432102 23.22637,2.814614 3.00952,0.585467 7.72964,2.276521 13.1844,4.723473 10.4938,4.707425 14.47699,6.867887 24.90411,13.50931 8.97231,5.714799 10.27547,6.499323 9.37539,5.642767 -2.11512,-2.012809 -9.47525,-8.16719 -13.09124,-10.946439 -4.02861,-3.096392 -19.40457,-11.284662 -29.22145,-15.561607 -5.453,-2.375721 -7.6202,-2.75445 -20.67962,-3.614645 C 107.0633,37.9709 107.05818,37.970015 102.4644,35.67605 100.09494,34.492833 97.631376,33.582284 96.761997,33.554775 Z m -54.018544,2.301782 c -0.31635,0.02345 -0.410869,0.17027 -0.429026,0.41581 0.05512,0.280885 1.496121,1.354523 3.254277,2.420078 3.585344,2.172946 7.454408,6.236432 11.786115,12.378565 2.781215,3.943621 3.750632,4.568408 5.43454,3.503117 0.689864,-0.436421 0.319203,-1.213176 -1.969134,-4.125866 -1.550456,-1.973486 -2.703205,-3.703813 -2.561582,-3.845436 0.141623,-0.141629 1.646986,1.455109 3.345496,3.548569 1.69851,2.093451 3.45778,3.806433 3.909258,3.806433 0.451486,0 0.820983,0.544599 0.820983,1.210361 0,2.163363 1.121368,3.402895 6.041493,6.676813 2.661909,1.77126 6.280924,4.516174 8.042215,6.099833 l 1.293524,1.16298 c 0.97896,0.796784 1.627174,1.170237 2.047461,1.09142 l 0.334259,-1.508842 c 0.128405,-0.579661 0.277148,-1.260952 0.414199,-1.894676 0.03655,-0.625029 0.136702,-1.128029 0.325879,-1.526892 0.006,-0.02848 0.01832,-0.08495 0.02385,-0.111527 0.285292,-1.370979 0.389503,-1.393224 5.196011,-1.093354 3.602711,0.224762 4.835375,0.124677 4.642567,-0.377776 C 94.551462,63.30997 91.736788,60.351686 88.440963,57.112543 84.023721,52.771267 80.90824,50.318356 76.58877,47.780673 67.989861,42.728815 66.058657,41.910396 58.674131,40.188757 54.991168,39.330108 49.968271,37.989707 47.512051,37.210075 44.582023,36.280051 43.303663,35.887307 42.743453,35.856598 Z M 71.210316,46.53002 c 0.148975,1.65e-4 0.962222,0.415653 2.448765,1.254199 3.252467,1.834689 10.25439,6.670426 10.25439,7.081985 0,0.374594 0.279879,0.544182 -6.359958,-3.850595 -4.491649,-2.972931 -6.627602,-4.486084 -6.343197,-4.485589 z m -16.739413,3.37225 c -0.1562,0.01434 -0.648063,0.377464 -1.328334,0.944438 -2.993113,2.780718 -9.609079,9.579079 -10.409109,10.846192 -1.019444,1.614628 -3.976241,2.802928 -6.989797,2.809133 -0.375737,8.26e-4 -0.667273,0.02662 -0.902533,0.0996 -0.156837,0.08189 -0.305089,0.168238 -0.443854,0.259801 -0.300648,0.301624 -0.463209,0.840284 -0.64112,1.788627 -0.238097,1.26916 -0.22348,2.119198 0.337161,2.680201 0.457044,0.354372 1.103674,0.609783 2.030377,0.787783 1.33784,0.205192 3.309129,0.240414 6.15173,0.204037 5.066811,-0.06484 6.371823,-0.0259 7.204472,0.629516 0.144027,0.04079 0.247563,0.08321 0.300414,0.126678 0.309247,0.254326 0.515454,0.565349 0.621136,0.929932 0.404835,0.568165 0.697529,1.108401 0.697529,1.318665 0,0.268362 -1.28498,2.150723 -2.855228,4.183242 -2.70927,3.506844 -2.971048,3.688174 -5.127356,3.548566 l -1.826663,-0.118297 c -0.05586,0.05025 -0.08651,0.106123 -0.09219,0.167614 l 1.316087,0.732018 c 2.089267,1.162248 3.690125,0.781365 6.340941,-1.630039 0.0469,-0.04996 0.09253,-0.09547 0.139891,-0.146983 0.707479,-0.769535 1.626517,-1.576407 2.512588,-2.240862 0.970708,-0.801862 1.933543,-1.520705 2.573187,-1.89822 1.741624,-1.027895 2.043091,-1.556777 2.337883,-4.102013 0.07426,-0.641114 0.131684,-1.119528 0.183086,-1.485312 l -0.19888,-1.436316 0.274951,0.960552 c 0.134866,-0.676353 0.246115,-0.282008 0.543131,0.926386 0.255115,1.0379 0.893931,2.002146 1.419555,2.142871 0.525625,0.140725 1.645839,0.408754 2.489703,0.595351 1.923729,0.425362 5.897932,4.349245 7.337273,7.244761 0.341396,0.686785 0.580534,1.368928 0.746201,2.298236 0.03759,0.12001 0.07441,0.240086 0.107015,0.359403 0.430364,1.57482 0.546945,4.741703 0.322656,8.764886 -0.03405,0.610702 -0.06146,1.190144 -0.08574,1.749626 v 4.462382 l 2.048428,-1.265159 c 1.463187,-0.903649 2.990556,-1.264836 5.346865,-1.264836 4.251276,0 10.901913,3.2535 15.058122,7.36629 1.282522,1.26912 2.458214,2.33989 2.965144,2.71533 0.114727,0.066 0.21595,0.11524 0.300736,0.14183 0.172697,-0.071 0.404096,-0.49929 0.538619,-1.01406 0.147387,-0.56401 0.303203,0.42508 0.346186,2.19766 0.103637,4.27402 1.451356,10.46827 2.886818,13.26885 2.317676,4.52179 8.290816,8.90764 13.569266,9.96333 0.97192,0.19438 1.76703,0.61215 1.76703,0.92864 0,0.31648 -0.42924,0.41061 -0.95411,0.20919 -0.79881,-0.30653 -0.89431,-0.066 -0.586,1.47564 0.20258,1.01294 0.36811,2.59976 0.36811,3.52633 0,1.47371 0.21599,1.68484 1.72351,1.68484 0.94784,0 1.88632,0.26339 2.0855,0.58568 0.0762,0.12334 0.14405,0.22444 0.21016,0.30589 0.19296,0.0921 0.35706,0.15113 0.50413,0.17793 0.29984,-0.12065 0.7331,-0.56217 1.53141,-1.4231 1.18401,-1.27691 1.61114,-1.42009 2.62218,-0.87901 1.80949,0.96841 2.39657,0.79707 2.80204,-0.8184 0.20222,-0.80571 0.60293,-1.465 0.89028,-1.465 0.10993,0 0.20066,-0.0131 0.27399,-0.0393 0.077,-0.0666 0.14507,-0.13248 0.19855,-0.19952 0.13098,-0.46389 -0.64752,-1.64949 -2.52644,-3.94214 -2.79426,-3.40955 -3.86097,-6.31659 -3.86607,-10.53611 -1.6e-4,-0.19604 -0.009,-0.39502 -0.0209,-0.59502 -0.17958,-1.11637 -0.39755,-2.22532 -0.61598,-3.11407 -1.20513,-3.73201 -4.0749,-7.8275 -8.19403,-11.56499 -1.16484,-1.05691 -2.16722,-2.04765 -2.90068,-2.84234 -0.93367,-0.89567 -1.44346,-1.5659 -1.23067,-1.69741 0.0515,-0.0318 0.0884,-0.0808 0.1125,-0.1444 0.20179,-0.838578 -2.29974,-5.036667 -5.138,-8.540545 -0.0658,-0.08122 -0.11536,-0.139302 -0.17728,-0.215319 -0.16603,-0.182477 -0.33228,-0.363753 -0.49865,-0.536363 -0.38853,-0.403084 -0.72042,-0.758212 -1.002138,-1.075303 -0.827407,-0.632518 -1.667927,-0.663361 -3.781292,-0.663361 -0.141603,0 -0.279293,-0.0044 -0.418387,-0.0074 -0.188978,0.0044 -0.390322,0.0074 -0.616624,0.0074 -0.343828,0 -0.680362,-0.01683 -0.995043,-0.04609 -0.328739,0.01048 -0.573146,-0.02651 -0.697207,-0.0938 -0.548732,-0.09829 -0.948827,-0.238958 -1.045972,-0.396147 -0.0089,-0.01432 -0.01296,-0.02781 -0.01708,-0.04126 -0.0091,-0.0101 -0.02108,-0.02008 -0.0274,-0.0303 -0.240655,-0.389393 0.641772,-0.594445 2.455858,-0.57053 1.099835,0.01449 2.722563,-0.05423 4.159711,-0.164713 0.289014,-0.333076 1.180994,-0.415166 2.715334,-0.415166 0.71633,0 1.49357,0.08511 2.28696,0.231758 2.28313,0.240609 4.44792,1.015788 6.32611,2.290179 0.95523,0.648124 1.53864,1.274885 1.807,2.126432 0.48301,0.70479 0.42934,1.275752 0.0561,2.663118 -0.0857,0.56334 -0.21551,1.196054 -0.38777,1.917882 -0.051,0.213661 -0.0942,0.402394 -0.12893,0.571175 0.004,0.356937 0.0259,0.715297 0.0638,1.062411 0.11066,0.09549 0.26291,0.173406 0.45835,0.249486 0.14547,0.01546 0.31687,0.02127 0.52283,0.02127 0.75381,0 1.69971,-0.527431 2.10226,-1.172005 1.08594,-1.738886 2.88739,-1.458908 3.96018,0.615657 0.74477,1.440214 1.1749,1.710858 2.2125,1.392158 0.5791,-0.177866 1.11273,-0.366162 1.33607,-0.46835 0.011,-0.0235 0.0225,-0.04667 0.0319,-0.07124 0.0211,-0.05488 0.046,-0.105211 0.0729,-0.153109 -0.0532,-0.377432 -0.34219,-1.363062 -0.73879,-2.487123 -0.14697,-0.416571 -0.27124,-0.817024 -0.37358,-1.184574 -0.0491,-0.0901 -0.0966,-0.190269 -0.13989,-0.302994 -0.42515,-1.107919 -0.43607,-1.597435 -0.12185,-1.267415 0.007,-0.0234 0.0152,-0.04292 0.0268,-0.05447 0.15557,-0.15557 0.55807,0.478897 0.89447,1.409886 0.3364,0.930988 0.85342,2.220003 1.1488,2.864575 0.17068,0.372477 0.2868,0.611085 0.36843,0.713324 0.32579,-0.129723 0.20765,-1.499268 -0.12926,-2.804943 -0.6825,-1.783734 -2.365,-3.59489 -4.68415,-4.943304 -1.56716,-0.911184 -3.64715,-2.258273 -4.62226,-2.993509 -0.0377,-0.02842 -0.0822,-0.05954 -0.12474,-0.08993 -1.13907,-0.677695 -2.27949,-1.33022 -3.36613,-1.926586 -0.78099,-0.39696 -1.59684,-0.789625 -2.36915,-1.132035 -1.16224,-0.515288 -2.64338,-1.199459 -4.08074,-1.879202 -1.21549,-0.518889 -2.38185,-1.083137 -3.21495,-1.557193 -0.12037,-0.06006 -0.27598,-0.134877 -0.38744,-0.191144 -3.070771,-1.550153 -4.048977,-1.772088 -6.691321,-1.518189 l -3.094721,0.297513 -6.200081,-6.288722 c -1.894082,-1.921038 -4.034275,-3.958666 -5.87807,-5.624716 -1.653285,-1.421423 -3.28627,-2.739994 -4.844346,-3.913448 -3.958294,-2.72143 -8.33494,-5.115429 -9.451134,-5.115429 -0.542827,0 -2.445355,0.823012 -4.227724,1.828919 -0.673379,0.380032 -1.318686,0.714506 -1.870499,0.975703 -0.818767,0.427438 -1.434645,0.702997 -1.609733,0.700752 -0.06859,-9.9e-4 -0.05889,-0.04455 0.01129,-0.119908 -0.02873,-0.0026 -0.05239,-0.0082 -0.06479,-0.02063 -0.161147,-0.161146 1.235281,-1.145688 3.103103,-2.187998 3.817948,-2.130541 6.136356,-4.051255 5.714325,-4.734109 -0.155377,-0.251411 -2.431025,0.327069 -5.057087,1.285465 -1.446785,0.52801 -2.52607,0.882494 -3.322935,1.084328 -0.306634,0.118772 -0.607844,0.232996 -0.919616,0.356502 -0.768324,0.304363 -0.981307,0.23976 -0.714291,-0.211129 -0.113643,-0.04094 -0.197672,-0.10163 -0.249808,-0.185986 -0.09274,-0.150059 -0.317616,-0.241541 -0.640798,-0.281397 l -1.048551,0.01225 c -1.598024,0.152456 -3.990879,0.833437 -5.857118,1.774768 -0.161517,0.125573 -0.357621,0.219574 -0.545388,0.273015 -1.42611,0.699466 -1.550076,0.528104 -0.654981,-0.142793 -0.0035,-0.01678 -0.0081,-0.03272 -0.0081,-0.0519 0,-0.126666 0.409456,-0.38762 0.909625,-0.579555 0.01538,-0.0059 0.02799,-0.0091 0.04287,-0.01451 0.316771,-0.203133 0.674978,-0.423367 1.081751,-0.661751 1.782174,-1.044425 3.187566,-2.52757 4.394691,-4.637409 0.58883,-1.029168 1.109797,-1.994949 1.433095,-2.644423 0.08738,-0.21654 0.158332,-0.411347 0.197911,-0.561504 z m -0.43257,7.768232 c 0.329448,3.3e-4 0.452293,0.115608 0.297836,0.365527 -0.207173,0.335204 -0.690498,0.612853 -1.074338,0.616946 -0.383837,0.0044 -2.251473,0.795231 -4.15004,1.758005 -1.060676,0.537879 -1.827049,0.920452 -2.401706,1.192311 -0.313294,0.325684 -0.612176,0.558281 -0.735564,0.558281 -0.07422,0 -0.06964,-0.0866 -0.0071,-0.224344 -0.763054,0.308683 -0.74043,0.131969 -0.42838,-0.37294 0.202976,-0.328412 1.602785,-1.213396 3.110838,-1.966878 2.355894,-1.177096 4.546521,-1.927733 5.388446,-1.926908 z m -1.184575,4.49107 c 0.01616,0 0.02721,0.0015 0.04287,0.0016 0.01106,-3.3e-4 0.02386,-0.0016 0.03449,-0.0016 1.318881,0 1.326158,0.07654 0.24852,2.655704 -0.902946,2.161036 -1.144833,2.228118 -4.571331,1.268704 -1.208579,-0.338405 -2.197347,-0.820107 -2.197347,-1.070469 0,-0.03129 0.01688,-0.06789 0.04287,-0.107337 0.01172,-0.04668 0.06073,-0.09491 0.132801,-0.146983 0.489249,-0.44263 1.938773,-1.163382 3.366126,-1.735122 0.77852,-0.467018 1.954091,-0.864497 2.901,-0.864497 z M 68.631327,85.30897 c -0.477108,0.0061 -2.338986,1.357684 -4.317976,3.151131 -2.799228,2.536772 -4.810614,3.806827 -7.431394,4.691882 -3.366994,1.137045 -3.695137,1.153362 -5.208906,0.259157 -1.023784,-0.60476 -2.015073,-0.785252 -2.706311,-0.492848 -0.980794,0.414877 -0.943499,0.50001 0.368427,0.845157 0.362915,0.09548 0.624757,0.196383 0.785527,0.300414 0.121804,0.0059 0.180871,0.06202 0.166002,0.162457 0.06034,0.116656 -0.0019,0.235505 -0.192434,0.353277 -0.0218,0.01348 -0.04601,0.02624 -0.07156,0.03836 -0.44398,0.389785 -1.237838,0.52768 -1.264836,0.146661 -0.286812,-0.01765 -0.583707,-0.05894 -0.862563,-0.128933 -1.562215,-0.392098 -3.482013,0.65015 -2.908092,1.578787 0.176615,0.285767 1.328011,0.519602 2.558682,0.519602 2.763893,0 4.117374,1.305802 3.078282,2.969656 -0.132641,0.212393 -0.243779,0.40962 -0.334904,0.59213 -0.113064,0.32178 -0.225616,0.66627 -0.328135,1.01502 -0.111151,1.47771 2.408919,0.63548 4.232881,-2.085491 1.356969,-2.024328 2.100709,-2.558717 3.979204,-2.859097 1.270628,-0.203182 3.503958,-1.126376 4.962965,-2.051651 1.459002,-0.925277 3.020381,-1.682257 3.469596,-1.682257 1.433042,0 2.458324,-1.494658 2.629918,-3.729719 0.01249,-0.362357 0.01928,-0.728823 0.01934,-1.087875 -0.04316,-1.240765 -0.271801,-2.31878 -0.547323,-2.489058 -0.01912,-0.01183 -0.04458,-0.01709 -0.07639,-0.01676 z m 86.085553,4.106526 c -0.0352,-0.0052 -0.0484,0.137819 -0.0319,0.47802 l -0.84387,6.956597 c -1.95652,7.029767 -3.7965,9.686547 -9.95333,11.588207 -6.2507,1.93064 -20.13573,1.34336 -26.63601,-1.12656 -1.57714,-0.59926 -2.86748,-0.96525 -2.86748,-0.81357 0,0.15168 0.63035,1.11501 1.40054,2.14094 0.77018,1.02593 2.24067,3.54607 3.26781,5.60022 l 1.7377,3.47507 c 0.47151,0.0163 1.10316,0.0836 1.87985,0.20211 l 6.55497,-0.21629 c 7.63082,-0.25173 8.69955,-0.42844 13.16119,-2.17446 3.65156,-1.42901 5.72105,-2.70135 8.34456,-5.13026 4.32025,-3.99979 5.87241,-9.4366 5.255,-15.315339 -0.0242,-0.05711 -1.05425,-5.632942 -1.26902,-5.664685 z M 67.889961,104.08263 c -0.188524,0.0131 -0.481426,0.22568 -0.834199,0.57246 -0.536766,0.69073 -1.305108,1.76417 -2.13997,3.00866 -3.037253,4.52749 -3.42385,7.19793 -1.752204,12.10394 0.967958,2.84079 3.690544,5.67919 5.447432,5.67919 0.493802,0 1.307845,0.30332 1.922396,0.70075 0.401409,0.16055 0.692806,0.32752 0.775856,0.4619 0.03661,0.0592 0.02476,0.10123 -0.02385,0.12894 0.62863,0.59207 0.04757,0.55554 -1.728996,-0.11991 -1.270011,-0.48285 -1.870695,-0.34317 -3.407386,0.79229 -1.026104,0.75819 -2.327325,1.54128 -2.891329,1.73996 -1.215744,0.42829 -1.374433,1.57008 -0.218219,1.57008 0.443968,0 1.135674,0.39526 1.536885,0.87868 0.401209,0.48344 1.364571,0.87901 2.140937,0.87901 0.776374,0 1.56926,0.41089 1.761873,0.91284 0.192622,0.50196 0.645705,0.80426 1.006971,0.67175 0.361271,-0.1325 2.416734,-0.82185 4.567784,-1.53173 2.151043,-0.70989 4.171376,-1.60539 4.489459,-1.99009 0.24449,-0.29569 0.49714,-1.261 0.642087,-2.35786 l 0.07091,-0.7562 c 0.01922,-0.20468 0.03275,-0.39502 0.04642,-0.58503 0.113972,-2.20185 -0.139329,-2.60059 -2.538375,-4.81179 -3.165521,-2.91788 -6.423992,-8.8376 -7.795631,-14.16268 -0.445163,-1.72825 -0.879257,-3.24173 -1.078849,-3.78516 z" />
      <path
         style="fill:#f1e800;fill-opacity:1;stroke-width:0.585977"
         d="m 152.3142,78.241167 c 0.0278,0.05567 0.13134,0.01754 0.20727,0.06447 0.0615,0.03799 0.12777,0.09626 0.19758,0.16987 0.1521,0.198248 0.30179,0.403298 0.44644,0.611143 0.62079,1.835028 1.15453,1.363957 2.3161,3.822303 0.29254,0.619149 0.81167,0.727324 1.00892,1.472216 0.14376,0.542868 0.006,1.755541 0.0285,2.120129 0.004,0.08474 -0.0135,0.195198 -0.06,0.336194 -0.14724,0.447722 -0.84112,2.369486 -1.6859,2.469854 -1.2867,0.152883 -1.85498,-1.685502 -2.89414,-3.722442 l -1.44442,-2.962887 c 0.17001,-0.08907 0.73884,0.06864 1.26668,0.236178 0.86898,0.275804 1.31095,0.967289 1.069,0.407843 -0.047,-0.207702 -0.73735,-1.261254 -0.88628,-1.652972 -0.71711,-1.8861 -0.31042,-4.853058 -0.0413,-4.314938 z"
         id="path907"
         sodipodi:nodetypes="ssccssccsccscsss" />
      <path
         style="fill:#e9220f;fill-opacity:1;stroke-width:0.585977"
         d="m 150.79473,71.641716 c 0.10862,0.0017 0.19918,0.02736 0.27817,0.07575 0.17174,0.145003 0.25988,0.46429 0.38873,0.957008 0.16359,0.62556 1.821,1.233155 2.96275,1.710208 1.17547,0.491143 1.99786,1.510025 2.51135,2.503009 0.76218,1.473877 2.54429,4.101048 2.15226,6.989245 -0.9355,4.515922 -3.35449,7.043324 -1.90466,1.249266 -0.002,-0.02861 -0.006,-0.05544 -0.009,-0.08316 -0.009,-0.117541 -0.0135,-0.244268 -0.0135,-0.384544 0,-0.878456 -0.17466,-1.422501 -0.38808,-1.209072 -0.21344,0.21343 -0.88914,-0.731384 -1.50143,-2.099679 -1.12124,-2.50564 -3.1926,-5.124776 -4.05302,-5.124776 -0.0371,0 -0.071,0.0312 -0.10186,0.08445 -0.12155,-1.65e-4 -0.14435,0.07514 -0.0777,0.21274 -0.12119,0.481134 -0.15659,1.49828 -0.0728,2.67182 0.002,0.03309 0.003,0.05724 0.005,0.08961 -0.0407,0.140368 -0.0324,0.288901 0.0261,0.422901 0.005,0.07955 0.0114,0.170837 0.0152,0.245296 5e-4,0.0072 8.3e-4,0.01437 0.001,0.0216 0.0871,1.739591 -0.0784,2.096627 -0.69205,1.861152 -0.84571,-0.324532 -0.72774,0.73938 0.30364,2.947416 0.11985,0.281929 0.25992,0.582053 0.42548,0.90221 0.2393,0.462761 0.41504,0.833928 0.5283,1.131714 0.24698,0.576921 1.86555,2.653689 -1.52786,1.114167 -2.93803,-1.332932 -5.25994,-3.164109 -4.19576,-9.129354 l 0.46766,-2.621491 c -0.6147,-2.10903 0.24602,-2.178843 0.74266,-2.66505 l 1.38474,-0.778757 c 1.0602,-0.596234 1.6912,-0.946183 2.09614,-1.062089 0.0906,-0.01975 0.17498,-0.03277 0.24787,-0.03159 z"
         id="path903"
         sodipodi:nodetypes="scssscccssssccsccccscscssccscss" />
      <path
         style="fill:#ff5555;fill-opacity:1;stroke-width:0.585977"
         d="m 47.016625,71.150802 c 0.715658,-0.01576 1.293687,0.267057 1.934,0.907369 l 0.767152,0.767153 c 0.05984,0.382061 -0.02278,0.828476 -0.244327,1.354123 l -0.990853,1.429548 c -1.690053,2.438737 -2.315648,2.815133 -2.956441,1.778313 -0.641849,-1.038537 -1.313082,-0.07675 -1.019219,1.460492 0.298853,1.563348 -0.501146,1.97765 -1.441796,0.746523 -0.368633,-0.482466 -0.181454,-1.96369 0.548612,-4.339895 0.913117,-2.972015 1.376904,-3.675029 2.633784,-3.990486 0.27662,-0.06943 0.530534,-0.107884 0.769088,-0.11314 z"
         id="path901" />
      <path
         id="path881"
         style="fill:#007e86;fill-opacity:1;stroke-width:0.585977"
         d="m 112.12601,43.493962 c -0.24109,0.0035 -0.38678,0.0219 -0.42225,0.05738 -0.19597,0.195967 0.17956,4.61926 0.83452,9.829231 0.7876,6.265216 1.00907,9.912515 0.66046,10.863921 l 0.0135,0.392279 -1.03533,1.047584 c -2.21099,2.667103 -7.39521,7.911097 -10.03069,10.012317 -0.28049,0.223623 -0.63717,0.422459 -1.03695,0.588903 -0.70497,0.434249 -1.215396,0.550129 -1.749301,0.514121 -0.107192,-0.0072 -0.1925,-0.01063 -0.293001,-0.01676 -0.195659,0.01776 -0.390916,0.02804 -0.583101,0.02804 -1.219733,0 -2.2196,0.252923 -2.260846,0.566018 0.02675,0.177756 0.317238,0.392525 0.749426,0.580521 0.09048,0.01472 0.183807,0.02546 0.282363,0.02546 0.328787,0 0.952593,0.225919 1.649379,0.570208 0.508893,0.190978 0.931644,0.419843 1.120431,0.621781 0.15095,0.09366 0.30047,0.190166 0.44611,0.289132 0.79716,0.541687 1.47786,0.984744 2.08388,1.344775 0.28621,0.144864 0.58035,0.289831 0.88287,0.429993 l 1.12398,0.520567 c 1.58014,0.459968 2.59618,-0.203113 4.33377,-1.939479 1.69159,-1.690402 3.05365,-2.433571 5.37136,-2.93001 4.10893,-0.880105 7.63873,-0.862405 11.55694,0.21403 0.94421,0.219133 0.98437,0.241723 1.98977,0.62565 1.69671,0.596838 3.48803,1.380483 5.44549,2.366248 l 3.93376,1.98106 1.52883,-2.608644 c 2.11264,-3.604955 4.73923,-5.749052 10.38493,-8.477042 1.4945,-0.722142 2.94249,-1.318856 4.4179,-1.80281 0.66989,-0.249884 1.3063,-0.466357 1.87856,-0.629195 0.34921,-0.09937 0.86945,-0.190306 1.51271,-0.273016 3.51839,-0.727 7.45907,-0.926348 12.67446,-0.7404 l 6.87152,0.244974 -2.47231,-1.672588 c -13.5455,-9.165874 -32.96703,-18.633305 -41.11358,-20.041714 -7.15609,-1.237174 -18.41901,-2.616413 -20.74956,-2.582535 z m 5.91998,6.040525 c 0.84936,-0.03856 10.56854,15.612165 14.85279,23.895212 0.0473,0.09062 0.0939,0.182209 0.14086,0.274628 0.0653,0.127398 0.1338,0.259063 0.1963,0.38261 2.02031,3.993699 2.00763,4.441026 0.6192,2.192188 -0.18372,-0.25449 -0.42805,-0.660284 -0.70075,-1.166846 -0.62232,-1.058084 -1.39539,-2.418477 -2.30468,-4.073326 -2.06301,-3.754549 -5.8543,-10.067157 -8.42483,-14.027944 -2.57053,-3.960782 -4.5563,-7.318777 -4.41306,-7.462015 0.009,-0.0091 0.0203,-0.01385 0.0342,-0.01451 z"
         sodipodi:nodetypes="ssscccscscsccsccscccsscccccscscsccssccccccsssc" />
      <path
         id="path946"
         style="fill:#007e86;fill-opacity:1;stroke-width:0.320066"
         d="M 51.046146,62.982331 C 50.8016,62.96645 50.39401,63.114599 49.845133,63.354626 a 0.44497595,1.3349278 10.451633 0 1 0.09541,1.333491 0.44497595,1.3349278 10.451633 0 1 -0.400983,1.062734 c 0.876267,0.205044 1.034267,-0.03419 1.393447,-1.015673 0.497836,-1.242262 0.527715,-1.725926 0.113139,-1.752847 z m -1.639708,0.568917 c -0.04342,0.01982 -0.07795,0.03452 -0.122809,0.05512 -0.729637,0.333688 -1.470522,0.837597 -1.720615,1.095932 -0.03684,0.03039 -0.06203,0.05882 -0.06801,0.08606 -0.01329,0.02302 -0.02192,0.04427 -0.02192,0.06253 0,0.146122 0.505529,0.427174 1.123332,0.624682 0.169317,0.05413 0.311242,0.09752 0.451912,0.139892 a 0.44497595,1.3349278 10.451633 0 1 0.01709,-1.088841 0.44497595,1.3349278 10.451633 0 1 0.341029,-0.975381 z" />
      <path
         id="path969"
         style="fill:#ffffff;fill-opacity:1;stroke-width:0.585977"
         d="m 112.63498,98.982026 c -0.18412,0.0083 -0.37241,0.09584 -0.5528,0.276238 -0.56099,0.560979 -0.48408,0.967486 0.3594,1.899506 0.36613,0.40457 0.64073,0.69367 0.84967,0.8774 0.3602,0.23645 0.51584,0.24454 0.58052,0.001 0.0328,-0.1595 0.0409,-0.39841 0.0384,-0.71784 -0.0121,-1.383914 -0.61759,-2.366023 -1.27515,-2.336271 z m 8.69848,1.000199 v 3.3e-4 c -0.65756,-0.02975 -1.26302,0.952355 -1.27515,2.336275 -0.002,0.31943 0.006,0.55834 0.0384,0.71783 0.0647,0.24328 0.22032,0.2352 0.58052,-0.001 0.20894,-0.18373 0.48354,-0.47282 0.84967,-0.87739 0.84348,-0.93203 0.92039,-1.33853 0.3594,-1.89951 -0.18039,-0.1804 -0.36868,-0.267906 -0.5528,-0.27624 z" />
      <path
         id="path979"
         style="fill:#ffffff;fill-opacity:1;stroke-width:0.434945"
         d="m 44.048579,96.314718 c -0.488078,-0.02208 -0.937688,0.706931 -0.946693,1.734153 -0.0019,0.2371 0.0044,0.414435 0.02869,0.532816 0.04801,0.180584 0.163277,0.174553 0.430638,-6.61e-4 0.155087,-0.136378 0.359043,-0.35082 0.630806,-0.651112 0.626077,-0.691806 0.683288,-0.993494 0.266892,-1.409886 -0.133899,-0.133901 -0.27367,-0.199146 -0.410331,-0.205327 z m 5.501264,5.501582 c -0.488079,-0.0221 -0.937368,0.70693 -0.946372,1.73416 -0.0019,0.2371 0.0041,0.41443 0.02837,0.53281 0.04801,0.18058 0.163599,0.17456 0.430959,-6.6e-4 0.155088,-0.13638 0.358721,-0.35114 0.630485,-0.65144 0.626075,-0.6918 0.683286,-0.99349 0.26689,-1.40988 -0.133897,-0.1339 -0.273668,-0.19882 -0.410328,-0.20501 z" />
      <path
         id="path981"
         style="fill:#ffffff;fill-opacity:1;stroke-width:0.434945"
         inkscape:transform-center-x="0.80180858"
         inkscape:transform-center-y="1.0690781"
         d="m 35.156049,70.109344 c -0.184563,1.24e-4 -0.371257,0.06563 -0.547322,0.208872 -0.547529,0.445454 -0.458829,0.78605 0.413554,1.591681 0.378676,0.34971 0.661947,0.600314 0.876746,0.760707 0.36806,0.209464 0.524589,0.222022 0.582779,0.02224 0.02847,-0.131322 0.03007,-0.329492 0.0187,-0.595026 -0.05048,-1.150455 -0.685288,-1.98892 -1.344452,-1.988475 z m 9.784104,7.389491 c -0.09303,-6.6e-4 -0.148726,0.106313 -0.19759,0.341027 -0.01323,0.206099 -0.0053,0.501895 0.01482,0.906402 0.04648,0.931881 0.219221,1.185544 0.808091,1.185541 0.189362,3e-6 0.334144,-0.05279 0.43515,-0.145049 0.360738,-0.32951 0.162997,-1.162596 -0.556992,-1.89532 -0.166332,-0.168978 -0.296216,-0.290308 -0.397114,-0.356823 -0.04041,-0.02343 -0.07536,-0.03555 -0.106372,-0.03578 z" />
    </g>
  </g>
</svg>
